<?xml version="1.0" encoding="UTF-8"?>
<svg width="700pt" height="700pt" version="1.1" viewBox="0 0 700 700" xmlns="http://www.w3.org/2000/svg">
 <g>
  <path d="m396.67 326.67h-280v23.332h46.668v23.332c0 12.879 10.453 23.332 23.332 23.332 12.879 0 23.332-10.453 23.332-23.332h23.332c0 12.879 10.453 23.332 23.332 23.332 12.879 0 23.332-10.453 23.332-23.332h140c0 12.879 10.453 23.332 23.332 23.332 12.879 0 23.332-10.453 23.332-23.332h23.332c0 12.879 10.453 23.332 23.332 23.332 12.879 0 23.332-10.453 23.332-23.332v-23.332l46.668 23.332v-46.664z"/>
  <path d="m350 68.625-72.754 36.375 72.754 36.375 72.754-36.375zm-20.578 36.375 20.578-10.289 20.578 10.289-20.578 10.289z"/>
  <path d="m140 163.33v140h443.33v-93.332l-46.668-46.668zm81.668 70c-6.4414 0-11.668-5.2266-11.668-11.664 0-6.4414 5.2266-11.668 11.668-11.668 6.4375 0 11.664 5.2266 11.664 11.668 0 6.4375-5.2266 11.664-11.664 11.664zm93.332 0c-6.4414 0-11.668-5.2266-11.668-11.664 0-6.4414 5.2266-11.668 11.668-11.668s11.668 5.2266 11.668 11.668c0 6.4375-5.2266 11.664-11.668 11.664zm93.332 0c-6.4375 0-11.664-5.2266-11.664-11.664 0-6.4414 5.2266-11.668 11.664-11.668 6.4414 0 11.668 5.2266 11.668 11.668 0 6.4375-5.2266 11.664-11.668 11.664zm151.67 0h-46.668v-46.664h13.672l32.996 32.992z"/>
 </g>
</svg>
