<?xml version="1.0" encoding="UTF-8"?>
<svg width="700pt" height="700pt" version="1.1" viewBox="0 0 700 700" xmlns="http://www.w3.org/2000/svg">
 <g>
  <path d="m513.33 163.33h-396.66l35 70-35 70h23.332l23.332-46.664 23.336 46.664h326.66l23.336-46.664 23.332 46.664h23.332l-35-70 35-70z"/>
  <path d="m420 326.67h-303.33v23.332h23.332v23.332c0 12.879 10.453 23.332 23.332 23.332 12.879 0 23.332-10.453 23.332-23.332h46.668c0 12.879 10.453 23.332 23.332 23.332 12.879 0 23.332-10.453 23.332-23.332v-23.332h140v23.332c0 12.879 10.453 23.332 23.332 23.332s23.332-10.453 23.332-23.332h46.668c0 12.879 10.453 23.332 23.332 23.332s23.332-10.453 23.332-23.332v-23.332h23.332v-23.332z"/>
 </g>
</svg>
